<svg xmlns="http://www.w3.org/2000/svg" width="44.343" height="36.398" viewBox="0 0 44.343 36.398"><defs><style>.a{fill:#fff;}.b{fill:#85bc21;}</style></defs><g transform="translate(-586.187 -356.936)"><path class="a" d="M586.187,393.313V356.976c.178-.012.34-.032.5-.033,4.109,0,8.219-.019,12.328.007a20.961,20.961,0,0,1,8.911,1.8,13.873,13.873,0,0,1,7.87,9.5,24.4,24.4,0,0,1-.337,13.7c-1.893,5.943-6.079,9.456-12.1,10.766a29.3,29.3,0,0,1-5.523.57c-3.657.086-7.318.025-10.977.025Zm9.694-28.432V385.2c1.136,0,2.245.076,3.339-.014,3.247-.267,5.553-1.855,6.529-5.04a18.013,18.013,0,0,0,.1-10.364,6.241,6.241,0,0,0-3.638-4.255C600.169,364.658,598.018,364.918,595.881,364.881Z"/><path class="b" d="M6.137,0A6.137,6.137,0,1,1,0,6.137,6.137,6.137,0,0,1,6.137,0Z" transform="translate(618.257 380.927)"/></g></svg>