<svg xmlns="http://www.w3.org/2000/svg" width="19.077" height="19.086" viewBox="0 0 19.077 19.086"><defs><style>.a{fill:#848e93;}</style></defs><g transform="translate(-1275.483 -3816.352)"><rect class="a" width="3.939" height="12.724" transform="translate(1275.861 3822.714)"/><path class="a" d="M328.2,195.552a2.348,2.348,0,1,0-2.329-2.348A2.339,2.339,0,0,0,328.2,195.552Z" transform="translate(949.609 3625.495)"/><path class="a" d="M336.487,203.263c0-1.788.823-2.854,2.4-2.854,1.449,0,2.145,1.023,2.145,2.854v6.679h3.92v-8.056c0-3.408-1.932-5.056-4.63-5.056a4.435,4.435,0,0,0-3.834,2.1v-1.713h-3.778v12.723h3.778Z" transform="translate(949.609 3625.495)"/></g></svg>